<?xml version="1.0" encoding="utf-8"?>
<!-- Generated by IcoMoon.io -->
<!DOCTYPE svg PUBLIC "-//W3C//DTD SVG 1.1//EN" "http://www.w3.org/Graphics/SVG/1.1/DTD/svg11.dtd">
<svg version="1.1" xmlns="http://www.w3.org/2000/svg" xmlns:xlink="http://www.w3.org/1999/xlink" width="32" height="32" viewBox="0 0 32 32">
<path d="M16 14.758c0.687 0 1.243 0.557 1.243 1.243s-0.556 1.243-1.243 1.243c-0.686 0-1.243-0.557-1.243-1.243s0.557-1.243 1.243-1.243zM16 0c-8.837 0-16 7.164-16 16s7.163 16 16 16c8.837 0 16-7.163 16-15.999s-7.163-16-16-16zM4.7 10.135c-0.131 0-0.262-0.036-0.38-0.112-0.324-0.21-0.416-0.644-0.206-0.967 1.829-2.821 4.584-4.963 7.758-6.032 0.366-0.125 0.763 0.073 0.885 0.439s-0.074 0.763-0.44 0.885c-2.874 0.969-5.372 2.911-7.031 5.468-0.133 0.207-0.358 0.318-0.587 0.318zM6.876 11.999c-0.127 0-0.255-0.035-0.37-0.107-0.327-0.205-0.427-0.636-0.223-0.963 1.628-2.605 4.136-4.531 7.063-5.419 0.367-0.112 0.76 0.096 0.872 0.465s-0.097 0.76-0.466 0.872c-2.603 0.79-4.835 2.503-6.283 4.822-0.132 0.213-0.361 0.33-0.593 0.33zM9.881 12.805c-0.135 0.2-0.355 0.307-0.579 0.307-0.135 0-0.271-0.037-0.391-0.119-0.32-0.217-0.404-0.651-0.188-0.97 1.228-1.817 3.043-3.2 5.112-3.898 0.368-0.122 0.763 0.074 0.885 0.44s-0.074 0.763-0.44 0.886c-1.781 0.597-3.343 1.789-4.4 3.353zM11.34 16c0-2.573 2.086-4.66 4.66-4.66s4.66 2.086 4.66 4.66c0 2.574-2.087 4.66-4.66 4.66s-4.66-2.086-4.66-4.66zM16.012 23.751c-0.071-0.379 0.179-0.745 0.558-0.816 2.212-0.418 4.216-1.725 5.5-3.591 0.218-0.318 0.654-0.399 0.972-0.18 0.318 0.22 0.399 0.654 0.18 0.973-1.491 2.166-3.82 3.686-6.393 4.171-0.044 0.008-0.086 0.011-0.131 0.011-0.328 0.001-0.622-0.232-0.685-0.569zM16.517 26.343c-0.072-0.378 0.177-0.744 0.556-0.817 2.829-0.537 5.323-2.124 7.020-4.47 0.226-0.312 0.663-0.383 0.977-0.157 0.312 0.226 0.382 0.663 0.157 0.977-1.909 2.636-4.712 4.421-7.893 5.023-0.044 0.009-0.088 0.013-0.131 0.013-0.329 0.001-0.622-0.232-0.686-0.569zM27.535 23.107c-2.246 3.512-5.877 5.941-9.963 6.662-0.041 0.007-0.082 0.010-0.122 0.010-0.333 0-0.628-0.239-0.688-0.577-0.066-0.379 0.187-0.743 0.567-0.809 3.702-0.654 6.993-2.855 9.029-6.039 0.208-0.326 0.641-0.419 0.965-0.213 0.326 0.208 0.421 0.64 0.213 0.966z"></path>
</svg>
