<?xml version="1.0" encoding="utf-8"?>
<!-- Generated by IcoMoon.io -->
<!DOCTYPE svg PUBLIC "-//W3C//DTD SVG 1.1//EN" "http://www.w3.org/Graphics/SVG/1.1/DTD/svg11.dtd">
<svg version="1.1" xmlns="http://www.w3.org/2000/svg" xmlns:xlink="http://www.w3.org/1999/xlink" width="32" height="32" viewBox="0 0 32 32">
<path d="M3.097 14.758c0.039 0.074 0.074 0.15 0.119 0.245 0.017 0.035 0.003 0.048-0.031 0.029-0.343-0.196-0.66-0.377-0.975-0.558-0.034-0.019-0.084-0.012-0.111 0.016-0.009 0.009-0.018 0.019-0.027 0.028-0.027 0.028-0.032 0.078-0.012 0.111 0.153 0.249 0.291 0.512 0.475 0.735 0.178 0.215 0.4 0.405 0.633 0.561 0.719 0.479 1.437 0.963 2.187 1.388 0.308 0.174 0.697 0.207 1.051 0.299 2.693 0.704 2.015 0.413 3.781 2.128 0.149 0.145 0.255 0.367 0.305 0.572 0.034 0.14-0.036 0.329-0.111 0.467-0.383 0.707-1.013 1.184-1.607 1.695-0.042 0.036-0.043 0.128-0.052 0.195-0.065 0.477-0.152 0.952-0.182 1.431-0.018 0.276 0.018 0.569 0.099 0.833 0.109 0.356 0.276 0.695 0.434 1.033 0.167 0.359 0.351 0.454 0.758 0.387 0.039-0.006 0.068-0.044 0.067-0.083-0.010-0.75 0.463-1.245 0.967-1.741 0.548-0.539 1.188-0.566 1.864-0.466 0.039 0.006 0.081 0.041 0.093 0.078 0.274 0.852 0.063 1.709 0.042 2.563-0.011 0.448-0.032 0.897-0.002 1.343 0.043 0.636-0.142 1.186-0.526 1.68-0.204 0.262-0.4 0.291-0.606 0.034-0.179-0.224-0.309-0.495-0.427-0.76-0.134-0.301-0.301-0.377-0.492-0.195-0.028 0.027-0.019 0.062 0.017 0.079 0.208 0.096 0.281 0.227 0.111 0.478-0.051 0.075-0.002 0.287 0.075 0.365 0.184 0.188 0.403 0.341 0.631 0.52 0.031 0.024 0.024 0.050-0.014 0.057-0.547 0.090-1.014-0.074-1.455-0.349-0.44-0.274-0.838-0.111-0.918 0.354-0.007 0.038 0.018 0.054 0.052 0.035 0.115-0.067 0.237-0.137 0.359-0.208 0.034-0.020 0.082-0.025 0.107-0.012s0.037 0.054 0.030 0.092c-0.051 0.276 0.118 0.331 0.343 0.362 0.208 0.028 0.409 0.111 0.616 0.154 0.175 0.036 0.353 0.056 0.545 0.13 0.037 0.014 0.035 0.037-0.002 0.048-0.119 0.036-0.237 0.073-0.357 0.108-0.293 0.085-0.596 0.146-0.878 0.259-0.235 0.094-0.397 0.267-0.379 0.537 0.003 0.039 0.031 0.093 0.059 0.121 0.017 0.017 0.033 0.033 0.050 0.050 0.028 0.028 0.054 0.019 0.059-0.020 0.026-0.212 0.043-0.312 0.43-0.265 0.471 0.057 1.036-0.202 1.475-0.465 0.46-0.275 0.877-0.392 1.386-0.244 0.259 0.075 0.53 0.109 0.797 0.151 0.066 0.010 0.165 0.008 0.203-0.032 0.321-0.341 0.543-0.184 0.749 0.137 0.021 0.033 0.047 0.030 0.055-0.008 0.072-0.327-0.115-0.497-0.34-0.577-0.222-0.079-0.5-0.121-0.719-0.058-0.406 0.116-0.687-0.012-0.923-0.243-0.028-0.027-0.032-0.077-0.011-0.11 0.515-0.806 1.016-1.592 1.517-2.376 0.021-0.033 0.021-0.078-0.002-0.1s-0.011-0.028 0.025-0.012c0.066 0.029 0.137 0.061 0.231 0.103 0.036 0.016 0.064-0.003 0.063-0.042-0.005-0.172-0.009-0.322-0.013-0.478-0.001-0.039 0.023-0.052 0.055-0.028 0.073 0.055 0.142 0.106 0.209 0.158 0.031 0.023 0.088 0.036 0.126 0.028 0.001-0 0.003-0.001 0.004-0.001 0.038-0.008 0.065-0.046 0.061-0.085-0.027-0.213-0.053-0.427-0.080-0.642-0.005-0.039 0.023-0.066 0.062-0.066 0.318 0.007 0.506-0.19 0.432-0.47-0.119-0.45-0.287-0.888-0.408-1.338-0.046-0.17-0.039-0.353-0.049-0.54-0.002-0.039 0.026-0.061 0.063-0.050 0.032 0.010 0.064 0.020 0.098 0.030 0.037 0.012 0.059-0.010 0.049-0.047-0.016-0.060-0.032-0.115-0.046-0.169-0.010-0.038 0.013-0.067 0.052-0.066 0.182 0.006 0.354 0.011 0.545 0.017 0.039 0.001 0.080 0.033 0.090 0.070 0.366 1.309 0.678 2.613-0.362 3.828-0.025 0.030-0.073 0.035-0.104 0.012-0.138-0.098-0.3-0.214-0.514-0.367-0.032-0.023-0.056-0.009-0.055 0.029 0.005 0.133 0.004 0.182 0.012 0.228 0.023 0.139 0.113 0.367 0.068 0.398-0.121 0.081-0.281 0.105-0.432 0.141-0.038 0.009-0.072-0.014-0.076-0.053-0.002-0.021-0.004-0.042-0.006-0.063-0.004-0.039-0.028-0.047-0.055-0.018-0.061 0.067-0.125 0.138-0.202 0.224-0.026 0.029-0.016 0.060 0.021 0.069 0.158 0.038 0.29 0.069 0.439 0.104 0.038 0.009 0.046 0.039 0.014 0.060-0.3 0.191-0.808-0.112-0.919 0.454-0.007 0.038 0.021 0.067 0.060 0.065 0.315-0.018 0.639 0.005 0.926-0.086 0.605-0.191 1.065-0.054 1.467 0.422 0.162 0.192 0.321 0.468 0.703 0.292 0.036-0.016 0.061-0 0.059 0.038-0.007 0.132-0.014 0.239-0.019 0.333-0.002 0.039 0.025 0.058 0.058 0.037 0.207-0.133 0.273-0.404 0.089-0.657-0.117-0.161-0.315-0.267-0.487-0.384-0.125-0.085-0.282-0.127-0.396-0.222-0.401-0.333-0.379-0.44-0.010-0.794 0.37-0.356 0.698-0.756 1.050-1.131 0.049-0.052 0.117-0.085 0.224-0.152 0.033-0.021 0.066-0.069 0.074-0.107 0.022-0.105 0.052-0.247 0.085-0.401 0.008-0.038 0.039-0.049 0.069-0.023 0.065 0.056 0.125 0.108 0.192 0.166 0.030 0.025 0.061 0.015 0.071-0.022 0.015-0.051 0.027-0.091 0.024-0.129-0.025-0.327 0.131-0.577 0.315-0.825 0.038-0.051 0.009-0.161-0.008-0.24-0.047-0.22-0.103-0.437-0.16-0.67-0.009-0.038 0.013-0.058 0.050-0.044 0.051 0.019 0.104 0.038 0.171 0.063 0.037 0.014 0.057-0.006 0.046-0.043-0.077-0.253-0.144-0.474-0.218-0.719-0.012-0.037 0.005-0.048 0.035-0.024 0.039 0.030 0.072 0.056 0.102 0.080s0.074 0.038 0.096 0.030c0.022-0.007 0.032-0.045 0.023-0.082-0.041-0.169-0.082-0.339-0.123-0.51-0.009-0.038 0.010-0.086 0.043-0.107 0.259-0.16 0.55-0.285 0.639-0.649 0.019-0.077 0.23-0.215 0.309-0.256 0.53-0.273 1.092-0.489 1.659-0.678 0.151-0.050 0.359 0.041 0.532 0.095 0.582 0.181 1.15 0.417 1.741 0.551 0.459 0.104 0.907-0.044 1.302-0.329 0.485-0.351 0.999-0.665 1.473-1.030 0.565-0.435 1.099-0.91 1.649-1.365 0.332-0.276 0.674-0.54 1.001-0.823s0.642-0.574 0.951-0.875c0.107-0.104 0.176-0.246 0.265-0.369 0.091-0.126 0.177-0.256 0.279-0.373 0.115-0.131 0.274-0.233 0.36-0.379 0.053-0.091 0.046-0.217 0.022-0.342-0.007-0.039 0-0.097 0.018-0.132 0.171-0.339 0.115-0.402-0.231-0.679-0.366-0.291-0.719-0.3-1.118-0.13-1.42 0.608-2.841 1.212-4.26 1.822-1.834 0.789-1.835 0.836-3.812 0.742-1.147-0.054-2.285-0.050-3.421 0.056-0.039 0.004-0.043-0.010-0.010-0.030 0.2-0.123 0.395-0.252 0.587-0.388 0.032-0.023 0.087-0.054 0.123-0.069 0.332-0.145 0.66-0.303 0.994-0.447 0.104-0.045 0.223-0.061 0.337-0.076 0.534-0.072 0.962-0.293 1.193-0.812 0.025-0.055 0.089-0.095 0.139-0.137 0.098-0.084 0.243-0.146 0.288-0.252 0.102-0.239 0.196-0.455 0.44-0.599 0.058-0.034 0.029-0.215 0.025-0.381-0.001-0.039 0.030-0.081 0.066-0.098 0.174-0.083 0.243-0.225 0.177-0.515-0.045-0.2 0.201-0.45 0.243-0.691 0.067-0.383 0.236-0.762 0.048-1.173-0.087-0.191-0.062-0.432-0.092-0.65-0.067-0.499-0.103-1.005-0.22-1.492-0.047-0.194-0.22-0.359-0.336-0.503-0.025-0.030-0.021-0.079 0.007-0.106 0.098-0.098 0.201-0.201 0.303-0.303 0.028-0.028 0.028-0.073 0-0.1-0.113-0.113-0.228-0.228-0.35-0.35-0.028-0.028-0.024-0.068 0.009-0.089 0.099-0.063 0.22-0.136 0.324-0.229 0.070-0.062 0.131-0.174 0.128-0.261-0.002-0.050-0.134-0.113-0.217-0.139-0.124-0.039-0.255-0.059-0.402-0.087-0.038-0.007-0.044-0.032-0.012-0.055 0.245-0.177 0.47-0.34 0.693-0.502 0.032-0.023 0.056-0.072 0.054-0.11s-0.034-0.076-0.072-0.086c-0.211-0.055-0.423-0.111-0.648-0.17-0.038-0.010-0.045-0.039-0.015-0.064 0.16-0.136 0.327-0.271 0.483-0.419 0.208-0.197 0.183-0.352-0.094-0.424-0.209-0.054-0.448-0.067-0.659-0.025-0.41 0.082-0.812 0.209-1.247 0.329-0.038 0.010-0.043-0-0.012-0.024 1.933-1.468 2.038-1.551 2.067-1.941 0.003-0.039-0.024-0.057-0.059-0.040-1.036 0.495-2.083 0.996-3.13 1.496-0.035 0.017-0.042 0.008-0.014-0.019 1.027-1.021 2.172-1.92 2.844-3.278 0.017-0.035 0.005-0.045-0.027-0.023-1.086 0.772-2.138 1.519-3.189 2.266-0.032 0.023-0.072 0.028-0.090 0.012s-0.013-0.054 0.011-0.085c0.294-0.376 0.596-0.748 0.879-1.132 0.425-0.577 0.852-1.153 1.244-1.752 0.144-0.221 0.208-0.493 0.3-0.748 0.013-0.037 0.002-0.089-0.026-0.117v0c-0.028-0.028-0.072-0.027-0.1 0.001-0.959 0.989-1.918 1.977-2.877 2.966-0.027 0.028-0.053 0.043-0.057 0.034s0.009-0.044 0.029-0.078c0.501-0.836 1.013-1.665 1.495-2.512 0.288-0.506 0.254-1.068 0.163-1.624-0.005-0.028-0.027-0.053-0.068-0.087-0.030-0.025-0.059-0.011-0.064 0.027-0.174 1.491-1.305 2.347-2.197 3.373-0.026 0.030-0.034 0.025-0.018-0.011 0.419-0.988 0.764-1.982 0.466-3.003-0.011-0.038-0.032-0.038-0.046-0.002-0.229 0.603-0.431 1.272-0.745 1.884-0.319 0.623-0.749 1.19-1.162 1.77-0.023 0.032-0.039 0.026-0.037-0.013 0.070-1.101 0.248-2.205-0.424-3.2-0.022-0.032-0.038-0.027-0.034 0.012 0.020 0.215 0.047 0.43 0.050 0.646 0.014 0.909-0.189 1.767-0.523 2.617-0.465 1.184-0.91 2.382-1.040 3.666-0.016 0.155-0.059 0.307-0.1 0.493-0.009 0.038-0.032 0.042-0.052 0.009-0.098-0.16-0.185-0.303-0.296-0.486-0.020-0.033-0.048-0.031-0.063 0.005-0.058 0.136-0.12 0.235-0.113 0.327 0.031 0.405 0.052 0.818 0.151 1.21 0.161 0.635 0.386 1.254 0.572 1.883 0.028 0.096 0.041 0.192 0.089 0.263 0.022 0.032 0.037 0.078 0.024 0.11s-0.024 0.058-0.024 0.058c-0.012 0.037-0.024 0.075-0.037 0.112s-0.052 0.056-0.088 0.042c-0.062-0.024-0.123-0.048-0.181-0.074-0.109-0.050-0.282-0.048-0.329-0.128-0.255-0.431-0.598-0.409-1.003-0.249-0.036 0.014-0.060-0.004-0.053-0.043 0.051-0.284 0.113-0.545 0.129-0.808 0.009-0.137-0.047-0.279-0.087-0.419-0.011-0.038-0.048-0.059-0.086-0.047-0.14 0.044-0.283 0.083-0.416 0.142-0.075 0.033-0.137 0.097-0.224 0.173-0.030 0.026-0.055 0.014-0.054-0.025 0.013-0.49 0.264-0.958-0.023-1.434-0.020-0.034-0.063-0.039-0.094-0.015-0.126 0.102-0.239 0.194-0.365 0.296-0.030 0.025-0.055 0.013-0.056-0.026-0.004-0.344-0.007-0.662-0.011-0.978-0-0.039-0.028-0.082-0.062-0.095s-0.084-0.001-0.112 0.026c-0.231 0.231-0.461 0.461-0.692 0.692-0.028 0.028-0.061 0.039-0.074 0.026s-0.017-0.055-0.009-0.093c0.092-0.423 0.183-0.847 0.275-1.27 0.008-0.038-0.012-0.086-0.046-0.106-0.012-0.007-0.023-0.014-0.035-0.021-0.034-0.020-0.085-0.016-0.115 0.009-0.158 0.132-0.33 0.253-0.458 0.409-0.373 0.452-0.724 0.922-1.083 1.386-0.024 0.031-0.067 0.043-0.096 0.028s-0.041-0.058-0.028-0.095c0.057-0.155 0.11-0.312 0.178-0.461 0.235-0.513 0.485-1.018 0.711-1.535 0.043-0.1 0.032-0.223 0.004-0.355-0.008-0.038-0.042-0.051-0.074-0.028-0.858 0.622-1.196 1.653-1.962 2.375-0.028 0.027-0.044 0.017-0.034-0.021 0.052-0.206 0.092-0.418 0.172-0.613 0.28-0.675 0.588-1.339 0.865-2.015 0.055-0.133 0.050-0.291 0.031-0.451-0.005-0.039-0.038-0.057-0.072-0.039-0.512 0.272-0.773 0.747-1.080 1.17-0.301 0.414-0.56 0.859-0.836 1.292-0.021 0.033-0.057 0.053-0.079 0.044s-0.032-0.047-0.021-0.084c0.315-1.063 0.631-2.125 0.946-3.188 0.011-0.038-0.009-0.081-0.045-0.096-0.011-0.005-0.023-0.010-0.034-0.015-0.036-0.016-0.090-0.009-0.12 0.016-0.991 0.833-1.219 2.164-2.007 3.172-0.024 0.031-0.043 0.024-0.042-0.016 0.002-0.202-0.014-0.409 0.031-0.6 0.191-0.804 0.418-1.599 0.606-2.402 0.047-0.201 0.025-0.418 0.025-0.629 0-0.039-0.029-0.081-0.066-0.094-0.001-0-0.002-0.001-0.004-0.001-0.037-0.013-0.088 0.001-0.114 0.030-0.121 0.132-0.254 0.256-0.346 0.405-0.615 0.997-0.909 2.119-1.233 3.228-0.060 0.205-0.102 0.414-0.164 0.679-0.009 0.038-0.030 0.040-0.046 0.005-0.246-0.561-0.286-1.079-0.207-1.612 0.092-0.619 0.186-1.237 0.281-1.856 0.019-0.126 0.043-0.251 0.065-0.376 0.007-0.039-0.018-0.078-0.056-0.088-0.007-0.002-0.015-0.004-0.022-0.006-0.038-0.010-0.088 0.007-0.114 0.036-0.104 0.117-0.227 0.227-0.279 0.364-0.235 0.614-0.46 1.233-0.649 1.863-0.148 0.496-0.244 1.007-0.359 1.513-0.009 0.038-0.038 0.073-0.066 0.078s-0.055-0.022-0.062-0.061c-0.137-0.813-0.273-1.626-0.41-2.439-0.007-0.039-0.044-0.072-0.082-0.075-0.007-0-0.014-0.001-0.020-0.002-0.039-0.003-0.081 0.025-0.095 0.061-0.072 0.188-0.162 0.374-0.196 0.569-0.182 1.034-0.151 2.073 0.032 3.101 0.305 1.711 0.914 3.317 1.726 4.85z"></path>
</svg>
