<?xml version="1.0" encoding="utf-8"?>
<!-- Generated by IcoMoon.io -->
<!DOCTYPE svg PUBLIC "-//W3C//DTD SVG 1.1//EN" "http://www.w3.org/Graphics/SVG/1.1/DTD/svg11.dtd">
<svg version="1.1" xmlns="http://www.w3.org/2000/svg" xmlns:xlink="http://www.w3.org/1999/xlink" width="32" height="32" viewBox="0 0 32 32">
<path d="M15.996 22.796c-1.013 0-1.837 0.824-1.837 1.837s0.824 1.838 1.837 1.838 1.837-0.825 1.837-1.838-0.824-1.837-1.837-1.837zM16.57 24.633c0 0.859-0.334 1.387-0.574 1.387s-0.574-0.528-0.574-1.387c0-0.859 0.334-1.386 0.574-1.386s0.574 0.527 0.574 1.386zM14.61 24.633c0-0.454 0.223-0.856 0.562-1.107-0.125 0.304-0.201 0.683-0.201 1.107 0 0.426 0.076 0.806 0.201 1.109-0.34-0.253-0.562-0.654-0.562-1.109zM16.82 25.744c0.125-0.305 0.201-0.685 0.201-1.108 0-0.427-0.075-0.805-0.201-1.108 0.339 0.252 0.563 0.656 0.563 1.108s-0.223 0.853-0.563 1.108zM29.202 18.344c-0.122 0.021-0.204 0.138-0.18 0.262 0.021 0.121 0.139 0.205 0.261 0.18 1.039-0.182 2.035 0.506 2.222 1.545 0.117 0.657-0.037 1.34-0.425 1.882-0.235 0.327-0.544 0.576-0.892 0.743 0.792-0.654 0.92-1.829 0.278-2.639-0.538-0.674-1.522-0.783-2.192-0.246-0.271 0.213-0.441 0.523-0.48 0.866s0.058 0.681 0.274 0.951c0.18 0.226 0.436 0.367 0.722 0.399 0.283 0.035 0.569-0.049 0.796-0.227 0.053-0.044 0.077-0.104 0.078-0.169 0.039-0.069 0.065-0.144 0.065-0.229 0-0.266-0.212-0.479-0.477-0.479s-0.478 0.213-0.478 0.479c0 0.058 0.014 0.114 0.033 0.166-0.151-0.026-0.29-0.099-0.386-0.224-0.141-0.175-0.205-0.394-0.179-0.619 0.025-0.224 0.135-0.426 0.313-0.567 0.478-0.38 1.177-0.301 1.559 0.178 0.495 0.621 0.391 1.531-0.232 2.028-0.798 0.635-1.735 0.525-2.636-0.32-0.039-0.036-0.090-0.050-0.138-0.054-0.432-0.419-0.878-0.962-1.395-1.616-0.233-0.294-0.457-0.61-0.682-0.924 0.077 0.014 0.155 0.030 0.233 0.030 0.24 0 0.48-0.063 0.717-0.197 0.599-0.338 0.811-1.102 0.475-1.703-0.283-0.504-0.922-0.679-1.423-0.397-0.205 0.116-0.353 0.304-0.416 0.53-0.062 0.227-0.034 0.467 0.082 0.671 0.203 0.358 0.66 0.488 1.021 0.283 0.086-0.049 0.113-0.145 0.093-0.239 0.004-0.017 0.020-0.021 0.023-0.039 0.022-0.16-0.087-0.308-0.247-0.333-0.155-0.020-0.296 0.085-0.326 0.237-0.069-0.020-0.132-0.064-0.171-0.131-0.057-0.1-0.071-0.215-0.040-0.327s0.103-0.203 0.203-0.259c0.286-0.161 0.649-0.059 0.809 0.226 0.216 0.384 0.078 0.873-0.305 1.088-0.647 0.363-1.147-0.057-1.411-0.379-0.986-1.33-2.107-2.525-3.898-2.773 1.785-0.246 2.906-1.438 3.888-2.761 0.261-0.321 0.767-0.757 1.42-0.391 0.383 0.216 0.52 0.704 0.305 1.087-0.162 0.284-0.525 0.386-0.81 0.227-0.099-0.056-0.171-0.148-0.203-0.259s-0.018-0.226 0.040-0.326c0.039-0.067 0.102-0.111 0.171-0.132 0.030 0.152 0.17 0.258 0.326 0.237 0.162-0.024 0.271-0.172 0.247-0.332-0.002-0.018-0.019-0.022-0.023-0.039 0.020-0.094-0.007-0.19-0.093-0.24-0.361-0.205-0.818-0.074-1.021 0.283-0.116 0.206-0.144 0.444-0.082 0.671 0.063 0.225 0.211 0.414 0.416 0.53 0.163 0.092 0.337 0.133 0.509 0.133 0.365 0 0.721-0.192 0.913-0.533 0.336-0.6 0.123-1.363-0.475-1.701-0.313-0.175-0.635-0.227-0.949-0.17 0.225-0.316 0.448-0.628 0.68-0.92 0.518-0.654 0.965-1.197 1.399-1.618 0.047-0.006 0.095-0.016 0.133-0.051 0.901-0.844 1.838-0.956 2.636-0.32 0.621 0.497 0.726 1.407 0.232 2.028-0.186 0.234-0.45 0.379-0.744 0.412-0.294 0.032-0.584-0.050-0.816-0.236-0.176-0.139-0.286-0.34-0.311-0.563-0.027-0.224 0.038-0.443 0.178-0.62 0.099-0.125 0.239-0.197 0.386-0.221-0.019 0.053-0.033 0.105-0.033 0.165 0 0.264 0.214 0.479 0.478 0.479s0.477-0.215 0.477-0.479c0-0.085-0.026-0.161-0.065-0.229-0.003-0.065-0.026-0.126-0.080-0.169-0.467-0.369-1.146-0.29-1.517 0.172-0.215 0.271-0.312 0.61-0.274 0.953s0.208 0.651 0.48 0.864c0.278 0.224 0.617 0.342 0.967 0.342 0.060 0 0.12-0.003 0.179-0.011 0.414-0.049 0.785-0.252 1.045-0.58 0.642-0.807 0.514-1.984-0.28-2.638 0.349 0.169 0.657 0.416 0.892 0.745 0.388 0.541 0.542 1.225 0.425 1.88-0.187 1.036-1.183 1.727-2.222 1.545-0.121-0.022-0.24 0.059-0.261 0.182s0.059 0.24 0.181 0.26c1.278 0.235 2.514-0.624 2.744-1.908 0.139-0.771-0.043-1.582-0.5-2.221-0.445-0.623-1.101-1.030-1.846-1.145-1.869-0.286-2.968 1.099-4.24 2.699-0.006 0.010-0.013 0.019-0.019 0.026-0.001 0.001-0.002 0.001-0.003 0.002-0.274 0.305-0.829 0.749-1.479 0.318-0.366-0.244-0.467-0.739-0.225-1.105 0.087-0.132 0.222-0.22 0.377-0.25 0.154-0.032 0.314 0 0.447 0.088 0.095 0.063 0.16 0.161 0.183 0.274 0.022 0.113 0 0.226-0.063 0.319-0.048 0.074-0.125 0.113-0.206 0.124-0.027-0.146-0.154-0.252-0.305-0.243-0.163 0.015-0.281 0.155-0.267 0.317 0.002 0.024 0.022 0.037 0.030 0.058-0.005 0.077 0.016 0.155 0.085 0.203 0.344 0.227 0.809 0.133 1.038-0.206 0.132-0.196 0.177-0.432 0.131-0.658-0.048-0.231-0.18-0.432-0.377-0.56-0.233-0.155-0.509-0.207-0.783-0.155-0.276 0.055-0.509 0.211-0.665 0.445-0.378 0.571-0.222 1.345 0.35 1.726 0.257 0.17 0.529 0.255 0.802 0.255 0.085 0 0.169-0.017 0.254-0.032-0.049 0.068-0.097 0.132-0.145 0.2-0.181 0.25-0.363 0.505-0.548 0.753-0.006 0.008-0.013 0.014-0.019 0.020-0.001 0.002 0 0.003-0.001 0.006-1.032 1.379-2.208 2.606-4.178 2.606-0.004 0-0.010 0-0.015 0-0.962-0.003-1.832-0.388-2.452-1.078-0.695-0.777-1.021-1.875-0.896-3.013 0.091-0.833 0.5-1.579 1.151-2.104 0.603-0.485 1.349-0.715 2.116-0.674 0.461 0.081 0.833 0.29 1.070 0.627 0.287 0.404 0.38 0.971 0.257 1.556-0.079 0.377-0.301 0.699-0.624 0.91-0.321 0.21-0.707 0.281-1.085 0.202-0.291-0.060-0.54-0.233-0.702-0.482-0.161-0.245-0.216-0.543-0.153-0.833 0.046-0.218 0.173-0.407 0.361-0.53s0.414-0.164 0.635-0.119c0.149 0.032 0.274 0.121 0.365 0.241-0.224 0.045-0.393 0.235-0.39 0.469 0.004 0.264 0.221 0.475 0.486 0.47 0.199-0.002 0.366-0.127 0.436-0.299 0.007-0.014 0.024-0.021 0.027-0.039 0.008-0.039-0.002-0.077 0.002-0.116 0-0.012 0.005-0.019 0.005-0.030 0-0.009-0.004-0.016-0.004-0.022 0.012-0.226-0.027-0.45-0.152-0.643-0.157-0.243-0.4-0.408-0.682-0.469-0.339-0.074-0.686-0.008-0.975 0.181s-0.487 0.477-0.557 0.813c-0.086 0.406-0.010 0.822 0.217 1.171s0.577 0.591 0.986 0.677c0.132 0.028 0.266 0.042 0.398 0.042 0.361 0 0.717-0.103 1.028-0.306 0.424-0.275 0.715-0.698 0.819-1.193 0.123-0.582 0.055-1.146-0.171-1.616 0.084 0.080 0.17 0.157 0.244 0.247 0.412 0.511 0.599 1.153 0.527 1.809-0.056 0.51-0.307 0.969-0.708 1.293-0.401 0.32-0.9 0.465-1.413 0.412-0.117-0.020-0.234 0.076-0.246 0.201-0.015 0.124 0.076 0.235 0.2 0.246 0.629 0.070 1.249-0.113 1.743-0.506 0.497-0.396 0.806-0.962 0.875-1.595 0.085-0.771-0.137-1.533-0.625-2.14-0.488-0.606-1.181-0.987-1.955-1.071-0.062-0.008-0.121 0.002-0.182-0.003-0.030-0.005-0.055-0.015-0.085-0.019-0.024-0.003-0.039 0.013-0.062 0.017-0.834-0.017-1.644 0.242-2.303 0.771-0.702 0.563-1.146 1.358-1.284 2.238-0.138-0.882-0.582-1.675-1.284-2.238-0.659-0.529-1.467-0.783-2.302-0.771-0.022-0.005-0.040-0.019-0.063-0.018-0.030 0.004-0.056 0.015-0.084 0.019-0.061 0.003-0.122-0.005-0.183 0.002-0.773 0.085-1.468 0.466-1.955 1.071-0.488 0.607-0.709 1.367-0.624 2.14 0.068 0.629 0.379 1.194 0.873 1.593 0.495 0.395 1.116 0.579 1.744 0.508 0.124-0.015 0.214-0.126 0.2-0.248-0.014-0.123-0.129-0.22-0.248-0.199-0.513 0.053-1.013-0.094-1.413-0.414s-0.652-0.78-0.707-1.293c-0.071-0.655 0.116-1.296 0.527-1.809 0.074-0.093 0.158-0.17 0.243-0.246-0.225 0.468-0.294 1.033-0.17 1.613 0.104 0.496 0.395 0.92 0.819 1.195 0.311 0.204 0.665 0.306 1.028 0.306 0.133 0 0.266-0.015 0.398-0.042 0.409-0.087 0.759-0.326 0.987-0.678 0.226-0.35 0.303-0.765 0.216-1.17-0.070-0.338-0.268-0.628-0.557-0.816-0.29-0.188-0.635-0.254-0.975-0.18-0.282 0.058-0.525 0.225-0.683 0.469-0.125 0.194-0.165 0.417-0.152 0.643 0 0.008-0.004 0.015-0.004 0.022 0 0.012 0.005 0.019 0.005 0.030 0.003 0.040-0.006 0.077 0.002 0.116 0.004 0.018 0.020 0.023 0.027 0.040 0.070 0.171 0.239 0.296 0.437 0.299 0.265 0.003 0.482-0.207 0.486-0.471 0.003-0.234-0.167-0.425-0.389-0.469 0.092-0.121 0.217-0.206 0.365-0.241 0.221-0.046 0.447-0.004 0.635 0.12 0.187 0.123 0.316 0.311 0.363 0.533 0.062 0.286 0.007 0.582-0.153 0.831-0.162 0.247-0.411 0.419-0.702 0.482-0.377 0.079-0.762 0.009-1.085-0.204-0.323-0.208-0.544-0.533-0.624-0.911-0.123-0.582-0.030-1.148 0.257-1.555 0.238-0.336 0.609-0.547 1.071-0.626 0.768-0.037 1.51 0.188 2.113 0.674 0.653 0.523 1.062 1.269 1.152 2.104 0.124 1.138-0.203 2.234-0.897 3.013-0.619 0.692-1.49 1.074-2.451 1.076-0.005 0-0.010 0-0.015 0-1.967 0-3.146-1.221-4.177-2.603-0.001-0.002 0-0.004-0.002-0.006-0.006-0.010-0.015-0.015-0.021-0.023-0.185-0.246-0.368-0.5-0.547-0.752-0.048-0.067-0.097-0.132-0.146-0.198 0.085 0.018 0.17 0.031 0.256 0.031 0.272 0 0.543-0.084 0.8-0.254 0.573-0.382 0.73-1.156 0.351-1.729-0.319-0.477-0.969-0.61-1.447-0.288-0.195 0.131-0.329 0.327-0.376 0.557s0 0.467 0.13 0.66c0.23 0.342 0.695 0.434 1.038 0.206 0.070-0.046 0.090-0.125 0.085-0.202 0.007-0.020 0.028-0.034 0.030-0.057 0.015-0.162-0.104-0.303-0.267-0.318-0.151-0.012-0.277 0.096-0.305 0.243-0.081-0.011-0.158-0.050-0.206-0.122-0.063-0.095-0.086-0.207-0.063-0.32s0.088-0.208 0.183-0.274c0.133-0.087 0.292-0.118 0.447-0.088s0.289 0.122 0.376 0.251c0.243 0.364 0.142 0.859-0.224 1.106-0.652 0.432-1.207-0.014-1.48-0.319-0.001-0.002-0.002-0.002-0.003-0.002-0.006-0.009-0.014-0.019-0.020-0.026-1.271-1.602-2.369-2.988-4.24-2.7-0.744 0.114-1.4 0.52-1.846 1.145-0.457 0.639-0.639 1.448-0.5 2.223 0.231 1.282 1.462 2.144 2.744 1.908 0.123-0.022 0.205-0.139 0.182-0.262s-0.143-0.206-0.261-0.181c-1.042 0.181-2.035-0.506-2.221-1.544-0.117-0.657 0.037-1.34 0.423-1.882 0.235-0.329 0.544-0.576 0.893-0.745-0.792 0.656-0.92 1.829-0.279 2.64 0.308 0.387 0.764 0.587 1.223 0.587 0.341 0 0.683-0.111 0.969-0.34 0.27-0.213 0.44-0.523 0.479-0.866s-0.059-0.682-0.274-0.951c-0.18-0.227-0.435-0.367-0.722-0.399-0.285-0.037-0.569 0.048-0.794 0.227-0.053 0.042-0.077 0.103-0.078 0.169-0.039 0.069-0.067 0.144-0.067 0.229 0 0.264 0.214 0.479 0.479 0.479s0.478-0.215 0.478-0.479c0-0.057-0.014-0.113-0.033-0.167 0.151 0.026 0.289 0.1 0.386 0.224 0.141 0.174 0.204 0.395 0.179 0.619s-0.136 0.426-0.313 0.565c-0.478 0.382-1.177 0.301-1.558-0.175-0.495-0.62-0.391-1.53 0.231-2.027 0.799-0.634 1.734-0.523 2.636 0.32 0.040 0.036 0.090 0.049 0.139 0.053 0.432 0.421 0.877 0.963 1.394 1.618 0.231 0.289 0.455 0.605 0.679 0.92-0.313-0.056-0.635-0.004-0.947 0.171-0.599 0.338-0.813 1.101-0.477 1.702 0.192 0.341 0.548 0.532 0.913 0.532 0.173 0 0.349-0.043 0.511-0.133 0.205-0.116 0.353-0.305 0.416-0.53 0.063-0.227 0.034-0.466-0.081-0.671-0.202-0.358-0.661-0.486-1.020-0.283-0.087 0.049-0.113 0.145-0.094 0.24-0.004 0.016-0.020 0.021-0.022 0.039-0.023 0.16 0.086 0.308 0.247 0.331 0.155 0.022 0.297-0.084 0.326-0.236 0.070 0.020 0.133 0.064 0.17 0.132 0.057 0.1 0.071 0.216 0.040 0.327s-0.103 0.203-0.204 0.258c-0.286 0.163-0.648 0.059-0.808-0.226-0.216-0.384-0.079-0.872 0.305-1.088 0.652-0.366 1.155 0.063 1.418 0.388 0.984 1.328 2.104 2.517 3.891 2.765-1.79 0.248-2.911 1.445-3.897 2.773-0.263 0.321-0.764 0.744-1.411 0.379-0.383-0.215-0.52-0.704-0.305-1.087 0.162-0.284 0.525-0.388 0.809-0.227 0.1 0.056 0.172 0.148 0.204 0.259 0.031 0.11 0.017 0.226-0.040 0.327-0.038 0.065-0.102 0.111-0.17 0.131-0.030-0.151-0.171-0.257-0.326-0.237-0.161 0.025-0.271 0.172-0.247 0.334 0.002 0.016 0.018 0.020 0.022 0.037-0.018 0.093 0.007 0.19 0.094 0.239 0.361 0.204 0.819 0.074 1.020-0.283 0.116-0.206 0.145-0.443 0.081-0.671-0.063-0.225-0.211-0.414-0.416-0.53-0.5-0.281-1.14-0.101-1.423 0.398-0.336 0.6-0.123 1.364 0.477 1.702 0.235 0.132 0.478 0.197 0.716 0.197 0.077 0 0.155-0.019 0.233-0.031-0.225 0.318-0.45 0.631-0.682 0.925-0.518 0.654-0.963 1.197-1.397 1.618-0.049 0.003-0.098 0.016-0.137 0.052-0.901 0.846-1.838 0.957-2.636 0.319-0.622-0.495-0.725-1.406-0.231-2.028 0.382-0.48 1.082-0.558 1.559-0.177 0.177 0.14 0.287 0.341 0.313 0.565s-0.038 0.443-0.179 0.621c-0.096 0.121-0.234 0.195-0.385 0.221 0.019-0.054 0.033-0.107 0.033-0.166 0-0.264-0.214-0.479-0.478-0.479s-0.478 0.215-0.478 0.479c0 0.085 0.028 0.16 0.066 0.229 0.002 0.062 0.025 0.126 0.078 0.169 0.225 0.178 0.506 0.262 0.794 0.227 0.286-0.032 0.542-0.173 0.722-0.399 0.216-0.27 0.313-0.608 0.274-0.951s-0.209-0.653-0.48-0.866c-0.671-0.537-1.655-0.426-2.193 0.247-0.642 0.807-0.514 1.983 0.279 2.639-0.349-0.169-0.658-0.416-0.893-0.744-0.387-0.542-0.541-1.225-0.424-1.882 0.187-1.036 1.181-1.727 2.221-1.545 0.118 0.022 0.24-0.059 0.261-0.18 0.022-0.124-0.059-0.241-0.182-0.262-1.281-0.232-2.513 0.625-2.745 1.907-0.139 0.772 0.043 1.585 0.5 2.224 0.446 0.621 1.102 1.030 1.847 1.144 1.869 0.285 2.969-1.1 4.24-2.7 0.007-0.010 0.014-0.019 0.020-0.025 0.001-0.003 0.002-0.003 0.003-0.003 0.274-0.305 0.83-0.749 1.479-0.318 0.366 0.244 0.468 0.738 0.225 1.104-0.087 0.131-0.221 0.222-0.376 0.253s-0.315-0.001-0.447-0.090c-0.096-0.062-0.16-0.161-0.183-0.274s0-0.226 0.063-0.319c0.049-0.074 0.125-0.111 0.207-0.122 0.028 0.144 0.153 0.251 0.304 0.242 0.162-0.015 0.281-0.157 0.267-0.318-0.002-0.023-0.022-0.037-0.030-0.057 0.005-0.077-0.015-0.155-0.085-0.203-0.343-0.227-0.808-0.135-1.038 0.207-0.131 0.196-0.176 0.432-0.13 0.658 0.047 0.231 0.18 0.432 0.376 0.56 0.178 0.118 0.378 0.174 0.578 0.174 0.338 0 0.67-0.164 0.87-0.465 0.378-0.572 0.222-1.347-0.352-1.729-0.335-0.224-0.695-0.299-1.049-0.232 0.046-0.063 0.094-0.125 0.139-0.188 0.18-0.254 0.364-0.507 0.55-0.759 0.006-0.007 0.013-0.012 0.018-0.018 0.001-0.002 0-0.006 0.002-0.008 1.032-1.378 2.209-2.604 4.178-2.604 0.004 0 0.009 0 0.014 0 0.962 0.004 1.832 0.386 2.452 1.079 0.694 0.775 1.020 1.874 0.897 3.012-0.091 0.834-0.5 1.579-1.152 2.104-0.602 0.484-1.348 0.714-2.114 0.674-0.463-0.079-0.833-0.29-1.071-0.626-0.286-0.405-0.38-0.972-0.257-1.556 0.080-0.377 0.301-0.699 0.624-0.91s0.707-0.282 1.086-0.202c0.291 0.061 0.54 0.234 0.702 0.481 0.16 0.246 0.215 0.545 0.153 0.833-0.046 0.217-0.175 0.406-0.362 0.53s-0.415 0.166-0.635 0.118c-0.15-0.031-0.273-0.118-0.364-0.24 0.223-0.044 0.393-0.232 0.389-0.467-0.003-0.264-0.221-0.474-0.486-0.47-0.198 0.002-0.367 0.127-0.437 0.298-0.007 0.017-0.023 0.022-0.027 0.040-0.008 0.039 0.002 0.077-0.002 0.116 0 0.011-0.006 0.018-0.006 0.029 0 0.010 0.004 0.017 0.004 0.023-0.012 0.226 0.027 0.451 0.153 0.643 0.157 0.243 0.399 0.407 0.681 0.468 0.341 0.072 0.685 0.009 0.975-0.18 0.289-0.188 0.488-0.478 0.558-0.814 0.086-0.407 0.010-0.822-0.217-1.171s-0.578-0.591-0.986-0.678c-0.496-0.105-1.001-0.014-1.426 0.264-0.424 0.276-0.715 0.699-0.819 1.193-0.124 0.582-0.055 1.147 0.17 1.616-0.084-0.079-0.169-0.157-0.242-0.246-0.412-0.512-0.599-1.154-0.527-1.81 0.114-1.054 1.066-1.808 2.122-1.704 0.119 0.022 0.235-0.076 0.248-0.2s-0.076-0.236-0.2-0.247c-1.299-0.146-2.476 0.802-2.617 2.102-0.084 0.772 0.137 1.533 0.624 2.14s1.182 0.988 1.955 1.070c0.077 0.009 0.153 0.011 0.23 0.016 0.012 0.002 0.024 0.005 0.037 0.007 0.010 0.002 0.020 0.002 0.030 0.002 0.006 0 0.009-0.005 0.015-0.005 0.026 0.002 0.053 0.005 0.079 0.005 1.747-0.002 3.249-1.283 3.525-3.027 0.276 1.745 1.779 3.027 3.525 3.027 0.025 0 0.053-0.003 0.080-0.005 0.004 0 0.008 0.005 0.013 0.005 0.011 0 0.019 0 0.030-0.002 0.012-0.002 0.023-0.005 0.035-0.007 0.077-0.005 0.154-0.007 0.232-0.015 0.774-0.085 1.468-0.466 1.955-1.071 0.488-0.607 0.709-1.367 0.625-2.14-0.143-1.299-1.32-2.248-2.617-2.102-0.124 0.015-0.214 0.126-0.2 0.247 0.013 0.122 0.131 0.224 0.246 0.2 1.056-0.104 2.008 0.65 2.122 1.706 0.071 0.654-0.116 1.296-0.527 1.809-0.073 0.093-0.158 0.17-0.244 0.246 0.225-0.467 0.294-1.032 0.171-1.614-0.105-0.495-0.395-0.92-0.82-1.195-0.424-0.277-0.933-0.368-1.425-0.265-0.409 0.088-0.759 0.328-0.987 0.679-0.226 0.349-0.303 0.766-0.217 1.17 0.070 0.338 0.268 0.627 0.558 0.815 0.291 0.188 0.635 0.254 0.974 0.181 0.281-0.059 0.525-0.225 0.682-0.469 0.125-0.193 0.166-0.417 0.153-0.643 0-0.009 0.004-0.016 0.004-0.022 0-0.011-0.005-0.020-0.005-0.031-0.003-0.039 0.006-0.076-0.002-0.114-0.003-0.018-0.018-0.024-0.027-0.041-0.070-0.172-0.238-0.295-0.436-0.298-0.265-0.004-0.482 0.207-0.486 0.471-0.003 0.236 0.166 0.424 0.389 0.469-0.091 0.12-0.215 0.206-0.364 0.238-0.219 0.047-0.445 0.007-0.634-0.118-0.187-0.121-0.319-0.311-0.363-0.532-0.063-0.286-0.007-0.582 0.153-0.832 0.162-0.247 0.411-0.419 0.702-0.481 0.376-0.080 0.762-0.010 1.085 0.203 0.321 0.209 0.544 0.533 0.622 0.91 0.124 0.582 0.031 1.149-0.257 1.555-0.238 0.336-0.609 0.548-1.070 0.628-0.769 0.035-1.511-0.19-2.115-0.676-0.653-0.525-1.062-1.27-1.152-2.102-0.125-1.139 0.203-2.235 0.897-3.013 0.619-0.695 1.488-1.076 2.451-1.080 0.004 0 0.009 0 0.014 0 1.97 0 3.147 1.224 4.18 2.606 0.001 0.002 0 0.005 0.002 0.007 0.005 0.007 0.011 0.011 0.017 0.019 0.187 0.249 0.37 0.504 0.551 0.757 0.046 0.064 0.093 0.126 0.14 0.19-0.356-0.066-0.716 0.008-1.050 0.231-0.574 0.384-0.731 1.158-0.352 1.729 0.202 0.301 0.532 0.466 0.87 0.466 0.201 0 0.401-0.056 0.579-0.174 0.195-0.13 0.329-0.327 0.376-0.558s0-0.466-0.131-0.659c-0.229-0.342-0.693-0.432-1.037-0.207-0.069 0.048-0.091 0.126-0.085 0.203-0.008 0.018-0.027 0.033-0.029 0.055-0.016 0.163 0.104 0.303 0.267 0.319 0.15 0.011 0.276-0.096 0.305-0.244 0.081 0.013 0.158 0.050 0.206 0.124 0.063 0.093 0.087 0.207 0.063 0.32-0.022 0.113-0.087 0.208-0.183 0.273-0.131 0.089-0.291 0.121-0.447 0.089-0.155-0.030-0.288-0.122-0.376-0.252-0.242-0.362-0.141-0.858 0.224-1.104 0.652-0.432 1.206 0.013 1.481 0.318 0.001 0.002 0.002 0.002 0.003 0.002 0.006 0.011 0.013 0.019 0.018 0.026 1.271 1.598 2.365 2.985 4.241 2.699 0.745-0.114 1.401-0.519 1.846-1.145 0.458-0.639 0.639-1.448 0.502-2.221-0.239-1.283-1.468-2.142-2.753-1.909zM16.97 17.168c-0.533 0.597-0.856 1.366-0.974 2.192-0.117-0.826-0.441-1.595-0.974-2.192-0.575-0.642-1.343-1.035-2.196-1.168 0.853-0.131 1.621-0.526 2.196-1.168 0.533-0.597 0.856-1.365 0.974-2.191 0.118 0.825 0.441 1.594 0.974 2.191 0.575 0.643 1.342 1.035 2.196 1.168-0.855 0.131-1.622 0.525-2.196 1.168zM15.996 9.203c1.013 0 1.837-0.824 1.837-1.836s-0.824-1.838-1.837-1.838-1.837 0.825-1.837 1.838c0 1.012 0.824 1.836 1.837 1.836zM15.422 7.367c0-0.859 0.334-1.387 0.574-1.387s0.574 0.528 0.574 1.387c0 0.858-0.334 1.385-0.574 1.385s-0.574-0.527-0.574-1.385zM17.383 7.367c0 0.454-0.224 0.855-0.563 1.108 0.125-0.305 0.201-0.683 0.201-1.108 0-0.426-0.076-0.806-0.201-1.109 0.34 0.254 0.563 0.654 0.563 1.109zM15.172 6.256c-0.125 0.305-0.201 0.684-0.201 1.108 0 0.427 0.075 0.806 0.201 1.108-0.339-0.251-0.562-0.655-0.562-1.108s0.223-0.853 0.562-1.108z"></path>
</svg>
