<?xml version="1.0" encoding="utf-8"?>
<!-- Generated by IcoMoon.io -->
<!DOCTYPE svg PUBLIC "-//W3C//DTD SVG 1.1//EN" "http://www.w3.org/Graphics/SVG/1.1/DTD/svg11.dtd">
<svg version="1.1" xmlns="http://www.w3.org/2000/svg" xmlns:xlink="http://www.w3.org/1999/xlink" width="32" height="32" viewBox="0 0 32 32">
<path d="M31.953 19.739c-0.231-1.289-1.463-2.146-2.758-1.918-0.123 0.021-0.205 0.138-0.182 0.261 0.021 0.122 0.138 0.203 0.261 0.181 1.043-0.189 2.048 0.511 2.235 1.556 0.118 0.658-0.037 1.347-0.425 1.891-0.238 0.333-0.551 0.582-0.904 0.752 0.802-0.658 0.932-1.841 0.284-2.655-0.539-0.676-1.527-0.788-2.202-0.25-0.271 0.217-0.443 0.525-0.481 0.871-0.039 0.344 0.059 0.684 0.275 0.954 0.18 0.227 0.437 0.371 0.726 0.403 0.288 0.034 0.571-0.048 0.798-0.228 0.054-0.042 0.077-0.104 0.078-0.168 0.040-0.069 0.068-0.146 0.068-0.232 0-0.265-0.214-0.481-0.482-0.481-0.265 0-0.48 0.215-0.48 0.481 0 0.060 0.014 0.116 0.034 0.17-0.154-0.027-0.292-0.101-0.39-0.225-0.142-0.178-0.206-0.399-0.179-0.624s0.136-0.426 0.315-0.568c0.482-0.384 1.184-0.303 1.57 0.178 0.498 0.627 0.393 1.542-0.233 2.041-0.804 0.64-1.746 0.526-2.651-0.322-0.038-0.035-0.088-0.047-0.136-0.052-0.435-0.421-0.883-0.969-1.407-1.627-0.235-0.296-0.461-0.615-0.689-0.932 0.078 0.015 0.158 0.032 0.237 0.032 0.241 0 0.484-0.066 0.721-0.2 0.601-0.338 0.816-1.106 0.478-1.709-0.282-0.503-0.923-0.683-1.429-0.4-0.207 0.115-0.355 0.305-0.418 0.533s-0.033 0.467 0.083 0.672c0.201 0.36 0.662 0.491 1.024 0.286 0.087-0.048 0.113-0.144 0.094-0.237 0.005-0.016 0.020-0.024 0.023-0.040 0.023-0.163-0.087-0.312-0.249-0.336-0.157-0.024-0.3 0.085-0.328 0.24-0.070-0.022-0.132-0.066-0.171-0.135-0.056-0.101-0.072-0.218-0.041-0.329s0.104-0.205 0.205-0.261c0.291-0.162 0.656-0.058 0.815 0.227 0.217 0.387 0.079 0.88-0.306 1.095-0.648 0.365-1.148-0.052-1.415-0.375-1.113-1.503-2.385-2.856-4.606-2.856-0.005 0-0.011 0-0.018 0-0.549 0.002-1.073 0.114-1.55 0.324 0.225-0.293 0.4-0.63 0.492-1.009 0.043-0.179 0.056-0.413 0.049-0.682 0-0.041-0.003-0.081-0.006-0.123-0.090-1.839-1.084-5.185-1.134-5.351-0.022-0.077-0.085-0.135-0.162-0.154-0.078-0.017-0.16 0.004-0.216 0.063-0.053 0.055-0.55 0.574-1.17 1.274-0.62-0.7-1.118-1.219-1.171-1.274-0.056-0.058-0.139-0.080-0.216-0.063-0.077 0.019-0.14 0.077-0.162 0.154-0.050 0.166-1.044 3.511-1.133 5.351-0.003 0.041-0.006 0.081-0.006 0.123-0.007 0.27 0.006 0.505 0.050 0.682 0.092 0.379 0.267 0.716 0.491 1.009-0.475-0.211-1-0.322-1.55-0.324-0.005 0-0.011 0-0.017 0-2.219 0-3.492 1.353-4.605 2.855-0.267 0.322-0.769 0.741-1.417 0.376-0.386-0.217-0.523-0.709-0.307-1.095 0.161-0.286 0.526-0.39 0.815-0.228 0.101 0.056 0.173 0.15 0.205 0.261s0.017 0.229-0.040 0.33c-0.039 0.069-0.102 0.112-0.172 0.134-0.029-0.154-0.172-0.262-0.329-0.239-0.162 0.024-0.272 0.173-0.25 0.336 0.003 0.017 0.019 0.024 0.023 0.040-0.017 0.091 0.008 0.188 0.095 0.237 0.362 0.204 0.822 0.074 1.024-0.286 0.117-0.206 0.145-0.445 0.081-0.673-0.063-0.227-0.212-0.416-0.417-0.533-0.505-0.281-1.146-0.102-1.429 0.401-0.338 0.603-0.123 1.371 0.479 1.709 0.237 0.133 0.481 0.2 0.721 0.2 0.080 0 0.158-0.018 0.236-0.032-0.227 0.319-0.452 0.637-0.688 0.932-0.522 0.657-0.97 1.205-1.406 1.627-0.048 0.003-0.098 0.016-0.137 0.052-0.906 0.848-1.848 0.961-2.651 0.322-0.626-0.498-0.731-1.413-0.232-2.041 0.384-0.481 1.090-0.561 1.569-0.178 0.178 0.141 0.29 0.342 0.315 0.567s-0.038 0.446-0.18 0.624c-0.097 0.122-0.236 0.197-0.389 0.225 0.020-0.054 0.034-0.109 0.034-0.17 0-0.265-0.215-0.481-0.48-0.481s-0.481 0.215-0.481 0.481c0 0.086 0.028 0.162 0.068 0.232 0.002 0.062 0.025 0.125 0.078 0.168 0.227 0.18 0.51 0.263 0.798 0.228 0.288-0.033 0.546-0.176 0.725-0.402 0.217-0.271 0.315-0.61 0.275-0.955s-0.21-0.654-0.481-0.87c-0.675-0.541-1.663-0.428-2.203 0.249-0.647 0.814-0.517 1.999 0.285 2.655-0.353-0.17-0.666-0.419-0.904-0.752-0.389-0.544-0.544-1.233-0.425-1.891 0.187-1.044 1.186-1.745 2.235-1.555 0.118 0.021 0.24-0.059 0.261-0.181s-0.059-0.24-0.182-0.261c-1.288-0.233-2.526 0.629-2.757 1.918-0.14 0.776 0.043 1.592 0.502 2.234 0.448 0.626 1.107 1.034 1.856 1.149 1.872 0.282 2.983-1.103 4.262-2.715 0.007-0.009 0.014-0.018 0.021-0.027 0 0 0.001 0 0.001-0.001 0.276-0.306 0.838-0.753 1.491-0.319 0.368 0.245 0.47 0.745 0.227 1.111-0.182 0.275-0.555 0.349-0.829 0.166-0.199-0.132-0.254-0.401-0.122-0.599 0.050-0.074 0.126-0.113 0.208-0.124 0.026 0.148 0.154 0.256 0.306 0.244 0.163-0.014 0.283-0.156 0.269-0.319-0.002-0.025-0.023-0.038-0.032-0.060 0.004-0.077-0.015-0.154-0.084-0.2-0.345-0.23-0.814-0.136-1.043 0.208-0.269 0.404-0.158 0.954 0.247 1.224 0.179 0.118 0.38 0.174 0.58 0.174 0.34 0 0.673-0.165 0.875-0.467 0.38-0.574 0.223-1.353-0.353-1.736-0.338-0.226-0.701-0.299-1.060-0.231 0.048-0.067 0.097-0.129 0.144-0.196 0.181-0.254 0.366-0.508 0.553-0.76 0.005-0.008 0.012-0.012 0.018-0.019 0.001-0.002 0-0.004 0.002-0.006 1.037-1.388 2.221-2.619 4.201-2.619 0.005 0 0.010 0 0.015 0 0.968 0.003 1.843 0.389 2.466 1.086 0.698 0.782 1.027 1.886 0.902 3.030-0.091 0.837-0.502 1.588-1.158 2.116-0.607 0.488-1.357 0.716-2.128 0.678-0.463-0.080-0.837-0.293-1.076-0.63-0.289-0.406-0.383-0.977-0.259-1.564 0.080-0.379 0.303-0.704 0.629-0.917 0.325-0.21 0.714-0.282 1.093-0.203 0.292 0.062 0.543 0.233 0.705 0.483s0.217 0.548 0.155 0.842c-0.046 0.22-0.175 0.409-0.364 0.532-0.19 0.124-0.415 0.169-0.641 0.12-0.15-0.032-0.276-0.122-0.368-0.242 0.225-0.043 0.396-0.234 0.393-0.47-0.005-0.265-0.222-0.478-0.489-0.473-0.2 0.002-0.37 0.128-0.44 0.303-0.007 0.014-0.023 0.021-0.027 0.038-0.008 0.038 0.002 0.075-0.002 0.113 0 0.011-0.007 0.020-0.007 0.033 0 0.009 0.005 0.016 0.006 0.025-0.012 0.226 0.028 0.449 0.153 0.642 0.158 0.244 0.401 0.411 0.686 0.471 0.338 0.071 0.689 0.007 0.981-0.183 0.289-0.189 0.488-0.479 0.558-0.816 0.088-0.41 0.010-0.828-0.219-1.18s-0.58-0.593-0.99-0.679c-0.495-0.106-1.005-0.012-1.432 0.266s-0.719 0.704-0.824 1.2c-0.125 0.587-0.054 1.16 0.175 1.631-0.086-0.081-0.174-0.161-0.249-0.254-0.414-0.515-0.603-1.162-0.531-1.82 0.115-1.060 1.070-1.831 2.134-1.715 0.12 0.014 0.236-0.076 0.248-0.201 0.013-0.124-0.076-0.235-0.2-0.247-1.307-0.139-2.489 0.808-2.631 2.116-0.085 0.776 0.138 1.541 0.627 2.15s1.187 0.992 1.966 1.077c0.078 0.008 0.156 0.009 0.233 0.012 0.013 0.002 0.023 0.007 0.037 0.009 0.010 0.001 0.019 0.002 0.029 0.002 0.005 0 0.009-0.006 0.014-0.006 0.028 0 0.056 0.005 0.085 0.005 0.817 0 1.603-0.276 2.249-0.795 0.444-0.357 0.776-0.808 1.006-1.314v2.252c0 0.125 0.101 0.225 0.225 0.225s0.225-0.101 0.225-0.225v-2.141c0.229 0.46 0.545 0.872 0.958 1.202 0.646 0.519 1.432 0.795 2.249 0.795 0.028 0 0.055-0.004 0.084-0.005 0.006 0 0.010 0.006 0.015 0.006 0.011 0 0.019 0 0.029-0.002 0.013-0.003 0.023-0.007 0.037-0.009 0.077-0.003 0.155-0.004 0.233-0.012 0.776-0.085 1.476-0.467 1.966-1.077s0.713-1.373 0.627-2.15c-0.143-1.307-1.318-2.255-2.631-2.116-0.124 0.014-0.212 0.125-0.201 0.247 0.013 0.124 0.132 0.214 0.248 0.201 1.055-0.112 2.019 0.655 2.134 1.715 0.072 0.657-0.116 1.304-0.531 1.82-0.075 0.094-0.163 0.173-0.248 0.254 0.228-0.47 0.299-1.043 0.174-1.631-0.105-0.497-0.397-0.923-0.824-1.2s-0.934-0.372-1.431-0.266c-0.41 0.087-0.762 0.328-0.991 0.679s-0.306 0.769-0.218 1.18c0.069 0.338 0.269 0.629 0.558 0.818 0.291 0.189 0.638 0.254 0.98 0.182 0.284-0.060 0.528-0.228 0.687-0.471 0.126-0.193 0.165-0.417 0.153-0.642 0-0.010 0.006-0.017 0.006-0.025 0-0.012-0.006-0.022-0.007-0.033-0.003-0.038 0.007-0.075-0.002-0.113-0.003-0.017-0.019-0.024-0.026-0.038-0.070-0.175-0.24-0.3-0.44-0.303-0.267-0.005-0.484 0.208-0.489 0.473-0.003 0.238 0.169 0.428 0.393 0.47-0.093 0.121-0.218 0.209-0.367 0.242-0.221 0.048-0.45 0.005-0.64-0.12-0.188-0.123-0.32-0.313-0.364-0.534-0.062-0.292-0.007-0.59 0.155-0.841s0.413-0.422 0.705-0.484c0.379-0.082 0.769-0.008 1.093 0.203s0.548 0.537 0.629 0.916c0.124 0.587 0.030 1.159-0.259 1.564-0.24 0.338-0.615 0.551-1.079 0.63-0.77 0.039-1.52-0.191-2.126-0.678-0.657-0.527-1.068-1.278-1.158-2.116-0.125-1.145 0.203-2.249 0.902-3.029 0.622-0.696 1.499-1.083 2.466-1.086 0.004 0 0.010 0 0.015 0 1.978 0 3.163 1.231 4.2 2.619 0.001 0.002 0 0.004 0.002 0.006 0.006 0.007 0.013 0.012 0.018 0.019 0.187 0.251 0.372 0.506 0.553 0.76 0.048 0.067 0.095 0.129 0.144 0.195-0.358-0.069-0.721 0.007-1.059 0.232-0.576 0.382-0.732 1.162-0.353 1.736 0.202 0.302 0.535 0.467 0.875 0.467 0.201 0 0.401-0.056 0.581-0.174 0.405-0.27 0.516-0.82 0.247-1.224-0.232-0.346-0.697-0.44-1.043-0.208-0.069 0.046-0.090 0.122-0.085 0.2-0.008 0.022-0.029 0.036-0.032 0.060-0.014 0.163 0.106 0.305 0.269 0.319 0.151 0.012 0.279-0.097 0.306-0.244 0.082 0.011 0.159 0.049 0.209 0.123 0.132 0.198 0.077 0.468-0.122 0.599-0.275 0.183-0.647 0.109-0.829-0.165-0.244-0.367-0.143-0.866 0.226-1.111 0.654-0.435 1.215 0.014 1.491 0.319h0.001c0.007 0.010 0.014 0.019 0.020 0.027 1.278 1.611 2.383 3.001 4.263 2.715 0.749-0.115 1.408-0.523 1.856-1.149 0.462-0.64 0.647-1.453 0.505-2.231zM13.82 13.552c0.158-0.655 1.196-1.978 2.179-3.117 0.982 1.138 2.021 2.462 2.179 3.117 0.029 0.118 0.040 0.237 0.049 0.355 0.003 0.052 0.008 0.109 0.010 0.158 0.009 1.022-0.681 1.957-1.717 2.208-0.17 0.042-0.346 0.062-0.52 0.063-0.174-0.001-0.349-0.021-0.519-0.063 0 0 0 0-0.001 0-1.035-0.251-1.726-1.185-1.717-2.208 0.001-0.049 0.007-0.106 0.010-0.158 0.008-0.12 0.018-0.236 0.048-0.355zM17.225 9.068c0.229 0.803 0.553 2.047 0.772 3.185-0.465-0.694-1.109-1.483-1.699-2.165 0.342-0.388 0.665-0.742 0.927-1.020zM14.772 9.068c0.261 0.279 0.585 0.633 0.927 1.020-0.59 0.681-1.235 1.472-1.699 2.165 0.219-1.137 0.542-2.382 0.773-3.185zM15.754 17.699c0.015 0.013 0.027 0.032 0.044 0.042v0.062c-0.016-0.035-0.029-0.070-0.044-0.105zM15.999 15.488c0.621 0 1.127-0.506 1.127-1.127s-0.506-1.127-1.127-1.127c-0.621 0-1.127 0.506-1.127 1.127s0.506 1.127 1.127 1.127zM15.999 13.685c0.373 0 0.676 0.303 0.676 0.676s-0.302 0.676-0.676 0.676-0.676-0.303-0.676-0.676c0-0.373 0.302-0.676 0.676-0.676z"></path>
</svg>
